HIERARCHY
ROOT SpineBase
{
  OFFSET 0.000000 0.000000 0.000000
  CHANNELS 6 Xposition Yposition Zposition Zrotation Xrotation Yrotation
  JOINT SpineMid
  {
    OFFSET -0.000000 27.769912 0.000000
    CHANNELS 3 Zrotation Xrotation Yrotation
    JOINT SpineShoulder
    {
      OFFSET 0.665197 20.666968 -0.064607
      CHANNELS 3 Zrotation Xrotation Yrotation
      JOINT Neck
      {
        OFFSET 0.188211 6.868530 -0.289969
        CHANNELS 3 Zrotation Xrotation Yrotation
        JOINT Head
        {
          OFFSET 5.674539 11.369572 -1.700545
          CHANNELS 3 Zrotation Xrotation Yrotation
          End Site
          {
            OFFSET 0 0 0
          }
        }
      }
      JOINT ShoulderLeft
      {
        OFFSET -14.411928 -0.941873 -7.634378
        CHANNELS 3 Zrotation Xrotation Yrotation
        JOINT ElbowLeft
        {
          OFFSET -6.852625 -21.778283 -4.053598
          CHANNELS 3 Zrotation Xrotation Yrotation
          JOINT WristLeft
          {
            OFFSET 0.374702 -22.737671 -6.188589
            CHANNELS 3 Zrotation Xrotation Yrotation
            JOINT HandLeft
            {
              OFFSET 2.172468 -7.135785 -1.187557
              CHANNELS 3 Zrotation Xrotation Yrotation
              JOINT HandTipLeft
              {
                OFFSET 0.231079 -7.536618 -0.642467
                CHANNELS 3 Zrotation Xrotation Yrotation
                End Site
                {
                  OFFSET 0 0 0
                }
              }
              JOINT ThumbLeft
              {
                OFFSET 3.233360 2.920331 0.302373
                CHANNELS 3 Zrotation Xrotation Yrotation
                End Site
                {
                  OFFSET 0 0 0
                }
              }
            }
          }
        }
      }
      JOINT ShoulderRight
      {
        OFFSET 13.891870 -6.185351 5.760192
        CHANNELS 3 Zrotation Xrotation Yrotation
        JOINT ElbowRight
        {
          OFFSET -1.776822 -25.842108 2.430704
          CHANNELS 3 Zrotation Xrotation Yrotation
          JOINT WristRight
          {
            OFFSET -4.336799 -18.123172 -8.153128
            CHANNELS 3 Zrotation Xrotation Yrotation
            JOINT HandRight
            {
              OFFSET -0.663526 -6.048609 0.005622
              CHANNELS 3 Zrotation Xrotation Yrotation
              JOINT HandTipRight
              {
                OFFSET -1.660362 -6.433766 -1.668353
                CHANNELS 3 Zrotation Xrotation Yrotation
                End Site
                {
                  OFFSET 0 0 0
                }
              }
              JOINT ThumbRight
              {
                OFFSET -2.629257 -0.135095 -4.074898
                CHANNELS 3 Zrotation Xrotation Yrotation
                End Site
                {
                  OFFSET 0 0 0
                }
              }
            }
          }
        }
      }
    }
  }
  JOINT HipLeft
  {
    OFFSET -6.452661 1.577509 -5.563814
    CHANNELS 3 Zrotation Xrotation Yrotation
    JOINT KneeLeft
    {
      OFFSET -13.836197 -34.515565 -2.579860
      CHANNELS 3 Zrotation Xrotation Yrotation
      JOINT AnkleLeft
      {
        OFFSET -5.848943 -23.411684 2.065787
        CHANNELS 3 Zrotation Xrotation Yrotation
        JOINT FootLeft
        {
          OFFSET 3.432388 -3.983185 -12.070764
          CHANNELS 3 Zrotation Xrotation Yrotation
          End Site
          {
            OFFSET 0 0 0
          }
        }
      }
    }
  }
  JOINT HipRight
  {
    OFFSET 5.387250 -0.293146 -1.113308
    CHANNELS 3 Zrotation Xrotation Yrotation
    JOINT KneeRight
    {
      OFFSET -8.339835 -28.358960 4.421492
      CHANNELS 3 Zrotation Xrotation Yrotation
      JOINT AnkleRight
      {
        OFFSET -5.591269 -31.821388 10.019765
        CHANNELS 3 Zrotation Xrotation Yrotation
        JOINT FootRight
        {
          OFFSET 3.823628 -7.082363 -1.735515
          CHANNELS 3 Zrotation Xrotation Yrotation
          End Site
          {
            OFFSET 0 0 0
          }
        }
      }
    }
  }
}
MOTION
Frames: 5
Frame Time: 0.033333
71.383558 68.753473 432.093877 -1.093207 -4.005881 -27.997555 1.861879 0.360672 28.033846 0.105602 0.137975 0.001732 -5.887282 18.283645 -6.785851 0.000000 0.000000 0.000000 -3.831599 9.678358 -0.835583 3.199758 -8.717660 1.167708 -2.302740 -2.522490 -1.395575 9.662612 17.305967 -0.464793 0.000000 0.000000 0.000000 0.000000 0.000000 0.000000 -0.148498 7.514878 -0.345401 9.894029 -37.752185 9.414147 -11.964442 44.153505 -0.686198 14.771234 -15.058186 2.643271 0.000000 0.000000 0.000000 0.000000 0.000000 0.000000 -3.611574 13.115525 24.533322 -0.852945 -10.722446 4.214741 -0.255147 -0.568389 -2.515541 0.000000 0.000000 0.000000 1.371234 7.143182 27.817419 -5.651090 3.984755 -1.761307 -0.487069 -7.902076 0.978710 0.000000 0.000000 0.000000
71.485994 68.883021 432.172326 -1.811826 -2.651213 -27.335412 1.842844 0.324893 27.341295 -0.047933 0.351206 -0.026414 -5.695453 19.167409 -7.973888 0.000000 0.000000 0.000000 -3.768751 9.973390 -1.149186 4.644501 -11.416711 1.642413 -4.480454 3.038313 0.738906 14.046498 7.226437 -1.717176 0.000000 0.000000 0.000000 0.000000 0.000000 0.000000 0.735905 5.948075 -0.279496 8.575074 -37.495714 9.384648 -8.844547 43.282422 -2.652371 11.954681 -11.619292 1.463829 0.000000 0.000000 0.000000 0.000000 0.000000 0.000000 -1.341790 11.496110 24.043872 -1.808804 -8.291859 3.329873 2.400682 2.101729 -5.127611 0.000000 0.000000 0.000000 3.798719 5.567228 27.501510 -6.787721 6.087553 -2.416470 -0.635391 -9.519216 1.032559 0.000000 0.000000 0.000000
71.812667 69.011231 432.615950 -2.353284 -1.241158 -27.952560 1.638964 0.423605 27.945492 -0.046347 0.139996 -0.039637 -6.138000 19.264665 -8.655646 0.000000 0.000000 0.000000 -4.001613 10.444614 -1.421437 6.553137 -13.899241 2.147987 -6.989531 5.459074 2.092574 17.611189 2.497836 -2.173863 0.000000 0.000000 0.000000 0.000000 0.000000 0.000000 1.403663 4.587559 -0.205772 6.683017 -35.870238 8.809420 -3.725767 40.322087 -5.546122 8.509779 -5.155833 -0.714391 0.000000 0.000000 0.000000 0.000000 0.000000 0.000000 0.309260 9.566467 24.994110 -2.043379 -7.178286 2.898132 0.606658 -1.923816 -3.654292 0.000000 0.000000 0.000000 5.249971 4.595933 28.263957 -7.606739 7.093821 -2.770197 -1.103274 -10.494482 1.351894 0.000000 0.000000 0.000000
72.077585 69.209203 433.159128 -3.106809 0.553567 -27.573890 1.267454 0.564784 27.566585 -0.243685 0.300690 -0.079431 -5.448200 18.578687 -9.490818 0.000000 0.000000 0.000000 -4.230055 9.601176 -1.471714 9.665784 -14.653056 2.472171 -10.356344 4.759583 2.938624 19.182291 1.221963 -2.342480 0.000000 0.000000 0.000000 0.000000 0.000000 0.000000 2.601838 2.330736 -0.044462 5.773518 -34.775097 8.435836 -5.009540 48.970825 -5.515559 10.095311 -12.066368 1.266820 0.000000 0.000000 0.000000 0.000000 0.000000 0.000000 1.744538 8.167253 24.686258 -3.101975 -5.916403 2.314096 2.164173 -3.237207 -4.463258 0.000000 0.000000 0.000000 7.078997 3.570621 28.030826 -8.545927 7.646013 -3.056552 -2.772848 -11.112313 1.882419 0.000000 0.000000 0.000000
72.336750 69.101563 433.603689 -4.109059 3.108589 -26.319813 1.555473 0.285094 26.358967 -0.170211 0.135506 -0.100029 -4.565419 17.355314 -9.987128 0.000000 0.000000 0.000000 -5.050835 8.749055 -1.465323 12.241296 -14.403166 2.766888 -14.936713 5.390474 4.678537 21.497792 -4.358140 -2.640741 0.000000 0.000000 0.000000 0.000000 0.000000 0.000000 3.386742 0.297944 0.121036 3.824045 -32.086502 7.604545 -2.540712 53.107142 -7.338395 8.117555 -13.298166 1.162298 0.000000 0.000000 0.000000 0.000000 0.000000 0.000000 3.123332 6.395484 23.460511 -2.825591 -5.534075 2.186938 2.081843 -6.267420 -4.877980 0.000000 0.000000 0.000000 9.316137 1.523514 27.132899 -9.009247 8.102215 -3.237726 -3.273845 -11.009793 2.416552 0.000000 0.000000 0.000000
